<svg id="visual" viewBox="0 0 900 300" width="900" height="300" xmlns="http://www.w3.org/2000/svg" xmlns:xlink="http://www.w3.org/1999/xlink" version="1.1"><rect x="0" y="0" width="900" height="300" fill="#002233"></rect><path d="M0 197L21.5 198.8C43 200.7 86 204.3 128.8 202.5C171.7 200.7 214.3 193.3 257.2 195.8C300 198.3 343 210.7 385.8 216C428.7 221.3 471.3 219.7 514.2 214.8C557 210 600 202 642.8 201.7C685.7 201.3 728.3 208.7 771.2 209.5C814 210.3 857 204.7 878.5 201.8L900 199L900 301L878.5 301C857 301 814 301 771.2 301C728.3 301 685.7 301 642.8 301C600 301 557 301 514.2 301C471.3 301 428.7 301 385.8 301C343 301 300 301 257.2 301C214.3 301 171.7 301 128.8 301C86 301 43 301 21.5 301L0 301Z" fill="#fa7268"></path><path d="M0 210L21.5 213.8C43 217.7 86 225.3 128.8 223.7C171.7 222 214.3 211 257.2 210C300 209 343 218 385.8 221.3C428.7 224.7 471.3 222.3 514.2 221.7C557 221 600 222 642.8 222.5C685.7 223 728.3 223 771.2 220C814 217 857 211 878.5 208L900 205L900 301L878.5 301C857 301 814 301 771.2 301C728.3 301 685.7 301 642.8 301C600 301 557 301 514.2 301C471.3 301 428.7 301 385.8 301C343 301 300 301 257.2 301C214.3 301 171.7 301 128.8 301C86 301 43 301 21.5 301L0 301Z" fill="#ff7a57"></path><path d="M0 219L21.5 223C43 227 86 235 128.8 236C171.7 237 214.3 231 257.2 231.5C300 232 343 239 385.8 242.2C428.7 245.3 471.3 244.7 514.2 244.7C557 244.7 600 245.3 642.8 241.2C685.7 237 728.3 228 771.2 228.5C814 229 857 239 878.5 244L900 249L900 301L878.5 301C857 301 814 301 771.2 301C728.3 301 685.7 301 642.8 301C600 301 557 301 514.2 301C471.3 301 428.7 301 385.8 301C343 301 300 301 257.2 301C214.3 301 171.7 301 128.8 301C86 301 43 301 21.5 301L0 301Z" fill="#ff8444"></path><path d="M0 264L21.5 263C43 262 86 260 128.8 257.3C171.7 254.7 214.3 251.3 257.2 250.8C300 250.3 343 252.7 385.8 252.8C428.7 253 471.3 251 514.2 250.5C557 250 600 251 642.8 249.8C685.7 248.7 728.3 245.3 771.2 244.7C814 244 857 246 878.5 247L900 248L900 301L878.5 301C857 301 814 301 771.2 301C728.3 301 685.7 301 642.8 301C600 301 557 301 514.2 301C471.3 301 428.7 301 385.8 301C343 301 300 301 257.2 301C214.3 301 171.7 301 128.8 301C86 301 43 301 21.5 301L0 301Z" fill="#fc902e"></path><path d="M0 267L21.5 268C43 269 86 271 128.8 273.5C171.7 276 214.3 279 257.2 281.2C300 283.3 343 284.7 385.8 284.8C428.7 285 471.3 284 514.2 282.8C557 281.7 600 280.3 642.8 280.2C685.7 280 728.3 281 771.2 279.3C814 277.7 857 273.3 878.5 271.2L900 269L900 301L878.5 301C857 301 814 301 771.2 301C728.3 301 685.7 301 642.8 301C600 301 557 301 514.2 301C471.3 301 428.7 301 385.8 301C343 301 300 301 257.2 301C214.3 301 171.7 301 128.8 301C86 301 43 301 21.5 301L0 301Z" fill="#f59e0b"></path></svg>