<svg id="visual" viewBox="0 0 900 300" width="900" height="300" xmlns="http://www.w3.org/2000/svg" xmlns:xlink="http://www.w3.org/1999/xlink" version="1.1"><rect x="0" y="0" width="900" height="300" fill="#002233"></rect><path d="M0 121L21.5 116.7C43 112.3 86 103.7 128.8 98C171.7 92.3 214.3 89.7 257.2 86.8C300 84 343 81 385.8 78.8C428.7 76.7 471.3 75.3 514.2 79.8C557 84.3 600 94.7 642.8 94.8C685.7 95 728.3 85 771.2 81.5C814 78 857 81 878.5 82.5L900 84L900 0L878.5 0C857 0 814 0 771.2 0C728.3 0 685.7 0 642.8 0C600 0 557 0 514.2 0C471.3 0 428.7 0 385.8 0C343 0 300 0 257.2 0C214.3 0 171.7 0 128.8 0C86 0 43 0 21.5 0L0 0Z" fill="#fa7268"></path><path d="M0 78L21.5 75.3C43 72.7 86 67.3 128.8 64.3C171.7 61.3 214.3 60.7 257.2 62.5C300 64.3 343 68.7 385.8 75.7C428.7 82.7 471.3 92.3 514.2 92.3C557 92.3 600 82.7 642.8 77C685.7 71.3 728.3 69.7 771.2 72C814 74.3 857 80.7 878.5 83.8L900 87L900 0L878.5 0C857 0 814 0 771.2 0C728.3 0 685.7 0 642.8 0C600 0 557 0 514.2 0C471.3 0 428.7 0 385.8 0C343 0 300 0 257.2 0C214.3 0 171.7 0 128.8 0C86 0 43 0 21.5 0L0 0Z" fill="#ff7a57"></path><path d="M0 56L21.5 57.5C43 59 86 62 128.8 65.5C171.7 69 214.3 73 257.2 74.8C300 76.7 343 76.3 385.8 72.5C428.7 68.7 471.3 61.3 514.2 59.3C557 57.3 600 60.7 642.8 61C685.7 61.3 728.3 58.7 771.2 57.2C814 55.7 857 55.3 878.5 55.2L900 55L900 0L878.5 0C857 0 814 0 771.2 0C728.3 0 685.7 0 642.8 0C600 0 557 0 514.2 0C471.3 0 428.7 0 385.8 0C343 0 300 0 257.2 0C214.3 0 171.7 0 128.8 0C86 0 43 0 21.5 0L0 0Z" fill="#ff8444"></path><path d="M0 27L21.5 31.7C43 36.3 86 45.7 128.8 46.3C171.7 47 214.3 39 257.2 36.8C300 34.7 343 38.3 385.8 38.2C428.7 38 471.3 34 514.2 33.2C557 32.3 600 34.7 642.8 35.2C685.7 35.7 728.3 34.3 771.2 36.3C814 38.3 857 43.7 878.5 46.3L900 49L900 0L878.5 0C857 0 814 0 771.2 0C728.3 0 685.7 0 642.8 0C600 0 557 0 514.2 0C471.3 0 428.7 0 385.8 0C343 0 300 0 257.2 0C214.3 0 171.7 0 128.8 0C86 0 43 0 21.5 0L0 0Z" fill="#fc902e"></path><path d="M0 26L21.5 27.3C43 28.7 86 31.3 128.8 30.2C171.7 29 214.3 24 257.2 22.8C300 21.7 343 24.3 385.8 26.5C428.7 28.7 471.3 30.3 514.2 30.7C557 31 600 30 642.8 29.2C685.7 28.3 728.3 27.7 771.2 27.5C814 27.3 857 27.7 878.5 27.8L900 28L900 0L878.5 0C857 0 814 0 771.2 0C728.3 0 685.7 0 642.8 0C600 0 557 0 514.2 0C471.3 0 428.7 0 385.8 0C343 0 300 0 257.2 0C214.3 0 171.7 0 128.8 0C86 0 43 0 21.5 0L0 0Z" fill="#f59e0b"></path></svg>