<svg id="visual" viewBox="0 0 900 300" width="900" height="300" xmlns="http://www.w3.org/2000/svg" xmlns:xlink="http://www.w3.org/1999/xlink" version="1.1"><rect x="0" y="0" width="900" height="300" fill="#002233"></rect><path d="M0 108L21.5 104.8C43 101.7 86 95.3 128.8 85.5C171.7 75.7 214.3 62.3 257.2 60.5C300 58.7 343 68.3 385.8 71C428.7 73.7 471.3 69.3 514.2 70.2C557 71 600 77 642.8 76.5C685.7 76 728.3 69 771.2 66.3C814 63.7 857 65.3 878.5 66.2L900 67L900 0L878.5 0C857 0 814 0 771.2 0C728.3 0 685.7 0 642.8 0C600 0 557 0 514.2 0C471.3 0 428.7 0 385.8 0C343 0 300 0 257.2 0C214.3 0 171.7 0 128.8 0C86 0 43 0 21.5 0L0 0Z" fill="#2563eb" stroke-linecap="round" stroke-linejoin="miter"></path></svg>