<svg id="visual" viewBox="0 0 900 300" width="900" height="300" xmlns="http://www.w3.org/2000/svg" xmlns:xlink="http://www.w3.org/1999/xlink" version="1.1"><rect x="0" y="0" width="900" height="300" fill="#002233"></rect><path d="M0 200L21.5 199.3C43 198.7 86 197.3 128.8 198.8C171.7 200.3 214.3 204.7 257.2 204.8C300 205 343 201 385.8 197.3C428.7 193.7 471.3 190.3 514.2 191C557 191.7 600 196.3 642.8 201.3C685.7 206.3 728.3 211.7 771.2 215.2C814 218.7 857 220.3 878.5 221.2L900 222L900 301L878.5 301C857 301 814 301 771.2 301C728.3 301 685.7 301 642.8 301C600 301 557 301 514.2 301C471.3 301 428.7 301 385.8 301C343 301 300 301 257.2 301C214.3 301 171.7 301 128.8 301C86 301 43 301 21.5 301L0 301Z" fill="#301e7d"></path><path d="M0 205L21.5 208.2C43 211.3 86 217.7 128.8 218.5C171.7 219.3 214.3 214.7 257.2 216.3C300 218 343 226 385.8 224.2C428.7 222.3 471.3 210.7 514.2 206.5C557 202.3 600 205.7 642.8 209.3C685.7 213 728.3 217 771.2 218.8C814 220.7 857 220.3 878.5 220.2L900 220L900 301L878.5 301C857 301 814 301 771.2 301C728.3 301 685.7 301 642.8 301C600 301 557 301 514.2 301C471.3 301 428.7 301 385.8 301C343 301 300 301 257.2 301C214.3 301 171.7 301 128.8 301C86 301 43 301 21.5 301L0 301Z" fill="#63187e"></path><path d="M0 219L21.5 224.2C43 229.3 86 239.7 128.8 240.8C171.7 242 214.3 234 257.2 233.5C300 233 343 240 385.8 241.7C428.7 243.3 471.3 239.7 514.2 236.8C557 234 600 232 642.8 229.8C685.7 227.7 728.3 225.3 771.2 227C814 228.7 857 234.3 878.5 237.2L900 240L900 301L878.5 301C857 301 814 301 771.2 301C728.3 301 685.7 301 642.8 301C600 301 557 301 514.2 301C471.3 301 428.7 301 385.8 301C343 301 300 301 257.2 301C214.3 301 171.7 301 128.8 301C86 301 43 301 21.5 301L0 301Z" fill="#8a117a"></path><path d="M0 243L21.5 247.2C43 251.3 86 259.7 128.8 263.8C171.7 268 214.3 268 257.2 263.8C300 259.7 343 251.3 385.8 247.3C428.7 243.3 471.3 243.7 514.2 247.8C557 252 600 260 642.8 264C685.7 268 728.3 268 771.2 266.3C814 264.7 857 261.3 878.5 259.7L900 258L900 301L878.5 301C857 301 814 301 771.2 301C728.3 301 685.7 301 642.8 301C600 301 557 301 514.2 301C471.3 301 428.7 301 385.8 301C343 301 300 301 257.2 301C214.3 301 171.7 301 128.8 301C86 301 43 301 21.5 301L0 301Z" fill="#ab1272"></path><path d="M0 265L21.5 266.5C43 268 86 271 128.8 272.5C171.7 274 214.3 274 257.2 276C300 278 343 282 385.8 280.7C428.7 279.3 471.3 272.7 514.2 269.7C557 266.7 600 267.3 642.8 270.5C685.7 273.7 728.3 279.3 771.2 281.3C814 283.3 857 281.7 878.5 280.8L900 280L900 301L878.5 301C857 301 814 301 771.2 301C728.3 301 685.7 301 642.8 301C600 301 557 301 514.2 301C471.3 301 428.7 301 385.8 301C343 301 300 301 257.2 301C214.3 301 171.7 301 128.8 301C86 301 43 301 21.5 301L0 301Z" fill="#c62368"></path></svg>