<svg id="visual" viewBox="0 0 900 300" width="900" height="300" xmlns="http://www.w3.org/2000/svg" xmlns:xlink="http://www.w3.org/1999/xlink" version="1.1"><rect x="0" y="0" width="900" height="300" fill="#002233"></rect><path d="M0 114L21.5 109.3C43 104.7 86 95.3 128.8 91.2C171.7 87 214.3 88 257.2 93C300 98 343 107 385.8 111.3C428.7 115.7 471.3 115.3 514.2 110.7C557 106 600 97 642.8 91.2C685.7 85.3 728.3 82.7 771.2 84.5C814 86.3 857 92.7 878.5 95.8L900 99L900 0L878.5 0C857 0 814 0 771.2 0C728.3 0 685.7 0 642.8 0C600 0 557 0 514.2 0C471.3 0 428.7 0 385.8 0C343 0 300 0 257.2 0C214.3 0 171.7 0 128.8 0C86 0 43 0 21.5 0L0 0Z" fill="#301e7d"></path><path d="M0 72L21.5 70.2C43 68.3 86 64.7 128.8 67.5C171.7 70.3 214.3 79.7 257.2 86C300 92.3 343 95.7 385.8 94C428.7 92.3 471.3 85.7 514.2 80.7C557 75.7 600 72.3 642.8 76C685.7 79.7 728.3 90.3 771.2 95.3C814 100.3 857 99.7 878.5 99.3L900 99L900 0L878.5 0C857 0 814 0 771.2 0C728.3 0 685.7 0 642.8 0C600 0 557 0 514.2 0C471.3 0 428.7 0 385.8 0C343 0 300 0 257.2 0C214.3 0 171.7 0 128.8 0C86 0 43 0 21.5 0L0 0Z" fill="#63187e"></path><path d="M0 70L21.5 71.7C43 73.3 86 76.7 128.8 74.8C171.7 73 214.3 66 257.2 63C300 60 343 61 385.8 58.3C428.7 55.7 471.3 49.3 514.2 47.3C557 45.3 600 47.7 642.8 51C685.7 54.3 728.3 58.7 771.2 57.8C814 57 857 51 878.5 48L900 45L900 0L878.5 0C857 0 814 0 771.2 0C728.3 0 685.7 0 642.8 0C600 0 557 0 514.2 0C471.3 0 428.7 0 385.8 0C343 0 300 0 257.2 0C214.3 0 171.7 0 128.8 0C86 0 43 0 21.5 0L0 0Z" fill="#8a117a"></path><path d="M0 54L21.5 52.3C43 50.7 86 47.3 128.8 45.3C171.7 43.3 214.3 42.7 257.2 42.5C300 42.3 343 42.7 385.8 41.2C428.7 39.7 471.3 36.3 514.2 36.2C557 36 600 39 642.8 41C685.7 43 728.3 44 771.2 45.7C814 47.3 857 49.7 878.5 50.8L900 52L900 0L878.5 0C857 0 814 0 771.2 0C728.3 0 685.7 0 642.8 0C600 0 557 0 514.2 0C471.3 0 428.7 0 385.8 0C343 0 300 0 257.2 0C214.3 0 171.7 0 128.8 0C86 0 43 0 21.5 0L0 0Z" fill="#ab1272"></path><path d="M0 29L21.5 29.8C43 30.7 86 32.3 128.8 30.8C171.7 29.3 214.3 24.7 257.2 21.8C300 19 343 18 385.8 18C428.7 18 471.3 19 514.2 20.7C557 22.3 600 24.7 642.8 27C685.7 29.3 728.3 31.7 771.2 29.3C814 27 857 20 878.5 16.5L900 13L900 0L878.5 0C857 0 814 0 771.2 0C728.3 0 685.7 0 642.8 0C600 0 557 0 514.2 0C471.3 0 428.7 0 385.8 0C343 0 300 0 257.2 0C214.3 0 171.7 0 128.8 0C86 0 43 0 21.5 0L0 0Z" fill="#c62368"></path></svg>