<svg id="visual" viewBox="0 0 900 300" width="900" height="300" xmlns="http://www.w3.org/2000/svg" xmlns:xlink="http://www.w3.org/1999/xlink" version="1.1"><rect x="0" y="0" width="900" height="300" fill="#002233"></rect><path d="M0 196L21.5 206C43 216 86 236 128.8 240.5C171.7 245 214.3 234 257.2 223C300 212 343 201 385.8 200.2C428.7 199.3 471.3 208.7 514.2 211.8C557 215 600 212 642.8 213.5C685.7 215 728.3 221 771.2 217.3C814 213.7 857 200.3 878.5 193.7L900 187L900 301L878.5 301C857 301 814 301 771.2 301C728.3 301 685.7 301 642.8 301C600 301 557 301 514.2 301C471.3 301 428.7 301 385.8 301C343 301 300 301 257.2 301C214.3 301 171.7 301 128.8 301C86 301 43 301 21.5 301L0 301Z" fill="#2563eb" stroke-linecap="round" stroke-linejoin="miter"></path></svg>